# xmcd CD database file
#
# Track frame offsets:
#	150
#	36140
#	54510
#	73505
#	105760
#	125810
#	165132
#	202012
#	238780
#	259457
#	296025
#	311200
#
# Disc length: 4404 seconds
#
# Revision: 0
# Processed by: cddbd v1.4PL0 Copyright (c) Steve Scherf et al.
# Submitted via: CDex 1.50Beta7
#
DISCID=b011320c
DTITLE=Various Artist - Land Sea and Sky
DYEAR=1995
DGENRE=New Age
TTITLE0=Apeiron - The Better Way
TTITLE1=Claus Bockstandt - Visualize Voyage
TTITLE2=Andreas Liers - Sunbeam and Dewdrops
TTITLE3=Ron Doesborg - Introverture
TTITLE4=Rudolf Heimann - At the lake
TTITLE5=Akikaze - The Master and the Apprentice
TTITLE6=Ad van Gerven - Moonpower
TTITLE7=Lambert - Up and down the Stairs
TTITLE8=Andreas Liers - The Trancemission IV
TTITLE9=Zodiac - Pluto
TTITLE10=Rudolf Heimann - The Seventh Dream
TTITLE11=Claus Bockstandt - Foreign Cultures
EXTD=YEAR: 1995
EXTT0=
EXTT1=
EXTT2=
EXTT3=
EXTT4=
EXTT5=
EXTT6=
EXTT7=
EXTT8=
EXTT9=
EXTT10=
EXTT11=
PLAYORDER=
